<?xml version="1.0" encoding="UTF-8"?>
<svg version="1.1" xmlns="http://www.w3.org/2000/svg" width="95" height="115">
<path d="M0 0 C4.56664195 0.53725199 7.24147184 2.44420085 11 5 C13.31648799 6.03842565 15.64903024 7.0421975 18 8 C26.91429613 11.85714737 30.57636013 22.56914743 34 31 C34.36953806 32.32375621 34.70526301 33.65760699 35 35 C35.24878906 35.86753906 35.49757812 36.73507813 35.75390625 37.62890625 C38.03447741 45.90286248 40.00983087 54.30637804 36.3125 62.4375 C34.35747557 65.76651013 32.42562083 68.08802558 29 70 C25.07816302 70.56026243 22.90797906 70.50935411 19.4375 68.5625 C12.77896874 61.5625056 8.93210113 53.00682729 5.10302734 44.26049805 C4.24534062 42.3018597 3.37570605 40.34887637 2.50390625 38.39648438 C-1.24608562 29.94317313 -4.35874647 22.74264592 -4.375 13.4375 C-4.39949219 12.69564453 -4.42398437 11.95378906 -4.44921875 11.18945312 C-4.47070249 7.16841222 -4.28104444 5.42048154 -1.9765625 1.97265625 C-1.32429687 1.32167969 -0.67203125 0.67070313 0 0 Z M-3 6 C-2 8 -2 8 -2 8 Z M-3 15 C-3 16.65 -3 18.3 -3 20 C-2.67 20 -2.34 20 -2 20 C-2 18.35 -2 16.7 -2 15 C-2.33 15 -2.66 15 -3 15 Z M-2 22 C-1 24 -1 24 -1 24 Z M0 28 C1 30 1 30 1 30 Z M34 38 C35 41 35 41 35 41 Z M35 42 C35 43.65 35 45.3 35 47 C35.33 47 35.66 47 36 47 C36 45.35 36 43.7 36 42 C35.67 42 35.34 42 35 42 Z M36 48 C36 50.64 36 53.28 36 56 C36.33 56 36.66 56 37 56 C37 53.36 37 50.72 37 48 C36.67 48 36.34 48 36 48 Z M35 57 C36 60 36 60 36 60 Z " fill="#E3E1DF" transform="translate(10,2)"/>
<path d="M0 0 C2.84772756 1.59984694 3.83747956 2.46120072 4.79296875 5.62890625 C4.98826172 7.08103516 4.98826172 7.08103516 5.1875 8.5625 C5.66923165 12.41356953 5.66923165 12.41356953 7 16 C8.27434012 25.76994091 2.56417293 35.17404059 -3.13671875 42.73046875 C-4.05904297 43.85388672 -4.05904297 43.85388672 -5 45 C-5.58394531 45.71800781 -6.16789062 46.43601563 -6.76953125 47.17578125 C-10.83428434 51.44591134 -13.9028001 52.46758291 -19.8125 52.625 C-25.37707309 52.48148229 -25.37707309 52.48148229 -27.65258789 50.72265625 C-29.76061211 48.02756314 -29.44580718 45.80078923 -29.32910156 42.48339844 C-28.76278017 38.20994057 -27.14964689 34.52507287 -25.375 30.625 C-25.00963135 29.79572998 -24.6442627 28.96645996 -24.26782227 28.11206055 C-11.11332355 -1.35528336 -11.11332355 -1.35528336 0 0 Z M3 11 C4 13 4 13 4 13 Z M5 17 C5 18.65 5 20.3 5 22 C5.33 22 5.66 22 6 22 C6 20.35 6 18.7 6 17 C5.67 17 5.34 17 5 17 Z M3 26 C4 28 4 28 4 28 Z M-28 41 C-28 43.31 -28 45.62 -28 48 C-27.67 48 -27.34 48 -27 48 C-27 45.69 -27 43.38 -27 41 C-27.33 41 -27.66 41 -28 41 Z " fill="#E6E6E6" transform="translate(83,63)"/>
<path d="M0 0 C1.41719242 0.62380692 2.8337306 1.2491003 4.25 1.875 C5.03890625 2.22304687 5.8278125 2.57109375 6.640625 2.9296875 C7.41921875 3.28289063 8.1978125 3.63609375 9 4 C9.69867188 4.30550781 10.39734375 4.61101563 11.1171875 4.92578125 C18.69813366 9.25100987 23.3459111 21.07473633 25.5703125 29.04296875 C25.71210937 29.68878906 25.85390625 30.33460937 26 31 C26.24878906 31.86753906 26.49757813 32.73507813 26.75390625 33.62890625 C29.04526242 41.94199071 30.98339224 50.32256526 27.3125 58.5 C25.45388346 61.75091352 23.47291645 63.45648158 20 65 C19.67 64.34 19.34 63.68 19 63 C19.804375 62.79375 20.60875 62.5875 21.4375 62.375 C22.283125 61.92125 23.12875 61.4675 24 61 C24.82888749 58.02685532 24.82888749 58.02685532 25 55 C25.33 54.34 25.66 53.68 26 53 C25.31575922 39.9342594 22.78938234 25.36814104 15.046875 14.54296875 C14 13 14 13 13.0625 10.125 C12.14025863 7.7104432 12.14025863 7.7104432 9.25 6.8125 C7.64125 6.4103125 7.64125 6.4103125 6 6 C2.6875 5.0625 2.6875 5.0625 0 4 C-0.33 3.01 -0.66 2.02 -1 1 C-0.67 0.67 -0.34 0.34 0 0 Z M25 34 C26 37 26 37 26 37 Z M26 38 C26 39.65 26 41.3 26 43 C26.33 43 26.66 43 27 43 C27 41.35 27 39.7 27 38 C26.67 38 26.34 38 26 38 Z M27 44 C27 46.64 27 49.28 27 52 C27.33 52 27.66 52 28 52 C28 49.36 28 46.72 28 44 C27.67 44 27.34 44 27 44 Z " fill="#FCFCFC" transform="translate(19,6)"/>
<path d="M0 0 C4.63746516 1.20574094 8.90351334 2.42778745 13 5 C14.375 7.6875 14.375 7.6875 15 10 C14.01 10.66 13.02 11.32 12 12 C12.33 13.216875 12.66 14.43375 13 15.6875 C13.80322213 18.87210604 14.20641973 21.6972843 14 25 C10.24826375 19.37239562 8.58371311 14.79935253 9 8 C8.2575 7.7525 7.515 7.505 6.75 7.25 C3.76976913 5.89534961 2.10080748 4.4898459 0 2 C0 1.34 0 0.68 0 0 Z " fill="#D9D8D4" transform="translate(12,6)"/>
<path d="M0 0 C0.66 0.66 1.32 1.32 2 2 C1.40260927 9.59725168 -4.31664213 16.87943421 -9.9375 21.6875 C-10.948125 22.450625 -11.95875 23.21375 -13 24 C-13.33 23.34 -13.66 22.68 -14 22 C-12.76302083 20.53515625 -11.52604167 19.0703125 -10.2890625 17.60546875 C-7.49004445 14.11941899 -5.46805557 10.23910628 -3.375 6.3125 C-3.05015625 5.70599609 -2.7253125 5.09949219 -2.390625 4.47460938 C-1.59239507 2.9837976 -0.79601482 1.4919957 0 0 Z " fill="#FBFBFB" transform="translate(85,89)"/>
<path d="M0 0 C1.32 0 2.64 0 4 0 C3.06945225 3.07796563 2.26853085 5.62818805 0.375 8.25 C-1.66308125 12.3261625 -1.61135292 16.51409872 -1 21 C-0.34 21.66 0.32 22.32 1 23 C-1.86724686 22.42655063 -2.8614515 22.1385485 -5 20 C-5.87113779 12.15975987 -3.60856596 6.89493854 0 0 Z M-4 12 C-4 14.31 -4 16.62 -4 19 C-3.67 19 -3.34 19 -3 19 C-3 16.69 -3 14.38 -3 12 C-3.33 12 -3.66 12 -4 12 Z " fill="#FBFBFB" transform="translate(59,92)"/>
<path d="M0 0 C3.37462715 0.54723683 5.08235 1.0549 8 3 C8 3.66 8 4.32 8 5 C5.03 4.505 5.03 4.505 2 4 C2 4.66 2 5.32 2 6 C1.01 6.66 0.02 7.32 -1 8 C-0.67 10.31 -0.34 12.62 0 15 C-0.99 15 -1.98 15 -3 15 C-4.61050328 5.98468271 -4.61050328 5.98468271 -2.0625 1.875 C-1.0415625 0.946875 -1.0415625 0.946875 0 0 Z M-3 6 C-2 8 -2 8 -2 8 Z " fill="#FBFBFA" transform="translate(10,2)"/>
<path d="M0 0 C0.99 0.33 1.98 0.66 3 1 C3.13277344 1.77085938 3.26554687 2.54171875 3.40234375 3.3359375 C3.57894531 4.33882813 3.75554687 5.34171875 3.9375 6.375 C4.19853516 7.87160156 4.19853516 7.87160156 4.46484375 9.3984375 C4.87712062 11.96909656 4.87712062 11.96909656 6 14 C6.25785684 18.55547083 5.99851462 21.8780636 4 26 C3.34 24.68 2.68 23.36 2 22 C2.33 21.67 2.66 21.34 3 21 C2.70881428 18.918548 2.70881428 18.918548 2.125 16.5625 C1.94195312 15.75941406 1.75890625 14.95632812 1.5703125 14.12890625 C1.06783822 11.9685643 1.06783822 11.9685643 0 10 C-0.06996014 8.29297265 -0.08440154 6.58331997 -0.0625 4.875 C-0.05347656 3.96492188 -0.04445313 3.05484375 -0.03515625 2.1171875 C-0.02355469 1.41851562 -0.01195313 0.71984375 0 0 Z M2 9 C3 11 3 11 3 11 Z M4 15 C4 16.65 4 18.3 4 20 C4.33 20 4.66 20 5 20 C5 18.35 5 16.7 5 15 C4.67 15 4.34 15 4 15 Z " fill="#FAFAFA" transform="translate(84,65)"/>
<path d="M0 0 C1.65 0.33 3.3 0.66 5 1 C3.68 4.63 2.36 8.26 1 12 C-2 6 -2 6 -1.0625 2.875 C-0.5365625 1.451875 -0.5365625 1.451875 0 0 Z " fill="#F3F3F3" transform="translate(79,63)"/>
<path d="M0 0 C2.24956302 2.24956302 3.00510965 4.06323263 4.1875 7 C4.55230469 7.886875 4.91710937 8.77375 5.29296875 9.6875 C6 12 6 12 5 14 C2 13 2 13 0.76171875 10.8203125 C0.40722656 9.93085937 0.05273438 9.04140625 -0.3125 8.125 C-0.67988281 7.24070312 -1.04726562 6.35640625 -1.42578125 5.4453125 C-1.61527344 4.63835938 -1.80476562 3.83140625 -2 3 C-1.34 2.01 -0.68 1.02 0 0 Z M1 5 C2 7 2 7 2 7 Z " fill="#FAFAFA" transform="translate(17,42)"/>
<path d="M0 0 C0.99 0 1.98 0 3 0 C3.4125 0.9075 3.825 1.815 4.25 2.75 C5.89050718 5.79665618 7.44718361 7.71126806 10 10 C7 10 7 10 4.4375 7.8125 C2.16225988 5.18722294 1.02946323 3.27556481 0 0 Z " fill="#FDFDFD" transform="translate(23,60)"/>
<path d="M0 0 C2.31 0 4.62 0 7 0 C7.33 0.99 7.66 1.98 8 3 C5.03 2.505 5.03 2.505 2 2 C2 2.66 2 3.32 2 4 C1.01 4.33 0.02 4.66 -1 5 C-0.67 3.35 -0.34 1.7 0 0 Z " fill="#EFEFEF" transform="translate(10,4)"/>
<path d="M0 0 C0.33 0 0.66 0 1 0 C1.33 2.97 1.66 5.94 2 9 C1.01 9.66 0.02 10.32 -1 11 C-1.33 10.01 -1.66 9.02 -2 8 C-1.67 7.67 -1.34 7.34 -1 7 C-0.63239269 4.67182036 -0.29758419 2.3381615 0 0 Z " fill="#E0DFDE" transform="translate(81,68)"/>
<path d="M0 0 C0.33 1.32 0.66 2.64 1 4 C0.01 3.67 -0.98 3.34 -2 3 C-1.34 2.01 -0.68 1.02 0 0 Z " fill="#FCFCFC" transform="translate(94,111)"/>
<path d="M0 0 C0.33 0 0.66 0 1 0 C1 1.65 1 3.3 1 5 C0.67 5 0.34 5 0 5 C0 3.35 0 1.7 0 0 Z " fill="#FFFFFF" transform="translate(5,12)"/>
</svg>
